<svg width="20" height="20" viewBox="0 0 20 20" fill="none" xmlns="http://www.w3.org/2000/svg">
<g id="box (1) 1" clip-path="url(#clip0_1_2268)">
<path id="Vector" d="M19.4636 4.25636C19.4636 4.00263 19.3103 3.77401 19.0757 3.67757L10.2379 0.0469287C10.0855 -0.0156429 9.9147 -0.0156429 9.76234 0.0469287L0.924565 3.67757C0.689882 3.77397 0.536621 4.00263 0.536621 4.25636V15.7436C0.536621 15.9974 0.689843 16.226 0.924565 16.3224L9.76234 19.9531C9.91306 20.015 10.0825 20.0163 10.2371 19.953C10.2446 19.9505 9.91005 20.0878 19.0757 16.3224C19.3104 16.226 19.4636 15.9974 19.4636 15.7436V4.25636ZM10.0001 7.26316L6.74373 5.92541L13.7811 2.85546L17.2553 4.28268L10.0001 7.26316ZM1.78805 5.24248L4.59756 6.39666V9.65288C4.59756 9.99844 4.87772 10.2786 5.22327 10.2786C5.56883 10.2786 5.84899 9.99844 5.84899 9.65288V6.91076L9.37439 8.35902V18.4408L1.78805 15.3242V5.24248ZM10.0001 1.30215L12.1692 2.19325L5.13184 5.26321L2.74493 4.28264L10.0001 1.30215ZM10.6258 8.35902L18.2122 5.24248V15.3242L10.6258 18.4408V8.35902Z" fill="#3D4655"/>
</g>
<defs>
<clipPath id="clip0_1_2268">
<rect width="20" height="20" fill="white"/>
</clipPath>
</defs>
</svg>
